HIERARCHY
ROOT hips
{
	OFFSET 0.000000 104.274902 0.000000
	CHANNELS 6 Xposition Yposition Zposition Xrotation Yrotation Zrotation
	JOINT spine
	{
		OFFSET 0.000000 10.181549 0.131524
		CHANNELS 6 Xposition Yposition Zposition Xrotation Yrotation Zrotation
		JOINT chest
		{
			OFFSET 0.000000 9.893990 -1.470706
			CHANNELS 3 Xrotation Yrotation Zrotation
			JOINT upperChest
			{
				OFFSET 0.000000 9.220787 -1.370637
				CHANNELS 3 Xrotation Yrotation Zrotation
				JOINT neck
				{
					OFFSET 0.000000 16.740372 -2.049022
					CHANNELS 6 Xposition Yposition Zposition Xrotation Yrotation Zrotation
					JOINT head
					{
						OFFSET 0.000000 9.617859 1.684976
						CHANNELS 6 Xposition Yposition Zposition Xrotation Yrotation Zrotation
						JOINT headEnd
						{
							OFFSET 0.000000 22.037384 7.501072
							CHANNELS 6 Xposition Yposition Zposition Xrotation Yrotation Zrotation
							End Site
							{
								OFFSET 0.000000 23.106567 -2.828246
							}
						}
					}
				}
				JOINT rightShoulder
				{
					OFFSET -4.570000 11.014877 -2.160840
					CHANNELS 6 Xposition Yposition Zposition Xrotation Yrotation Zrotation
					JOINT rightUpperArm
					{
						OFFSET -10.592867 -0.524796 -2.232105
						CHANNELS 3 Xrotation Yrotation Zrotation
						JOINT rightLowerArm
						{
							OFFSET -27.841497 0.000000 -0.000002
							CHANNELS 3 Xrotation Yrotation Zrotation
							JOINT rightHand
							{
								OFFSET -28.328812 0.000000 -0.000001
								CHANNELS 3 Xrotation Yrotation Zrotation
								JOINT rightThumbProximal
								{
									OFFSET -2.464798 -1.573990 2.681911
									CHANNELS 6 Xposition Yposition Zposition Xrotation Yrotation Zrotation
									JOINT rightThumbIntermediate
									{
										OFFSET -3.244781 -1.873383 1.873376
										CHANNELS 3 Xrotation Yrotation Zrotation
										JOINT rightThumbDistal
										{
											OFFSET -2.646263 -1.527817 1.527818
											CHANNELS 6 Xposition Yposition Zposition Xrotation Yrotation Zrotation
											JOINT rightHandThumb4
											{
												OFFSET -1.994591 -1.151581 1.151575
												CHANNELS 6 Xposition Yposition Zposition Xrotation Yrotation Zrotation
												End Site
												{
													OFFSET -1.860176 -1.142715 1.365483
												}
											}
										}
									}
								}
								JOINT rightIndexProximal
								{
									OFFSET -9.108299 -0.517883 2.259803
									CHANNELS 6 Xposition Yposition Zposition Xrotation Yrotation Zrotation
									JOINT rightIndexIntermediate
									{
										OFFSET -3.699997 0.000000 0.000000
										CHANNELS 3 Xrotation Yrotation Zrotation
										JOINT rightIndexDistal
										{
											OFFSET -2.850006 0.000000 0.000000
											CHANNELS 3 Xrotation Yrotation Zrotation
											JOINT rightHandIndex4
											{
												OFFSET -2.772194 0.000000 0.000000
												CHANNELS 3 Xrotation Yrotation Zrotation
												End Site
												{
													OFFSET -2.772202 0.000000 -0.000484
												}
											}
										}
									}
								}
								JOINT rightMiddleProximal
								{
									OFFSET -9.532501 0.000000 -0.000000
									CHANNELS 6 Xposition Yposition Zposition Xrotation Yrotation Zrotation
									JOINT rightMiddleIntermediate
									{
										OFFSET -3.699997 0.000000 0.000000
										CHANNELS 3 Xrotation Yrotation Zrotation
										JOINT rightMiddleDistal
										{
											OFFSET -2.949997 0.000000 0.000000
											CHANNELS 3 Xrotation Yrotation Zrotation
											JOINT rightHandMiddle4
											{
												OFFSET -2.946594 0.000000 0.000000
												CHANNELS 3 Xrotation Yrotation Zrotation
												End Site
												{
													OFFSET -2.946602 0.000000 -0.000982
												}
											}
										}
									}
								}
								JOINT rightRingProximal
								{
									OFFSET -9.103600 -0.043106 -1.865100
									CHANNELS 6 Xposition Yposition Zposition Xrotation Yrotation Zrotation
									JOINT rightRingIntermediate
									{
										OFFSET -3.379303 0.000000 0.000000
										CHANNELS 3 Xrotation Yrotation Zrotation
										JOINT rightRingDistal
										{
											OFFSET -2.889694 0.000000 0.000000
											CHANNELS 3 Xrotation Yrotation Zrotation
											JOINT rightHandRing4
											{
												OFFSET -2.638802 0.000000 0.000000
												CHANNELS 3 Xrotation Yrotation Zrotation
												End Site
												{
													OFFSET -2.638802 0.000000 0.004218
												}
											}
										}
									}
								}
								JOINT rightLittleProximal
								{
									OFFSET -8.076698 -0.486725 -3.806299
									CHANNELS 6 Xposition Yposition Zposition Xrotation Yrotation Zrotation
									JOINT rightLittleIntermediate
									{
										OFFSET -3.600006 0.000000 0.000000
										CHANNELS 3 Xrotation Yrotation Zrotation
										JOINT rightLittleDistal
										{
											OFFSET -2.099998 0.000000 0.000000
											CHANNELS 3 Xrotation Yrotation Zrotation
											JOINT rightHandPinky4
											{
												OFFSET -2.115791 0.000000 0.000000
												CHANNELS 3 Xrotation Yrotation Zrotation
												End Site
												{
													OFFSET -2.115799 0.000000 0.000174
												}
											}
										}
									}
								}
							}
						}
					}
				}
				JOINT leftShoulder
				{
					OFFSET 4.570400 11.014679 -2.160816
					CHANNELS 6 Xposition Yposition Zposition Xrotation Yrotation Zrotation
					JOINT leftUpperArm
					{
						OFFSET 10.592373 -0.524597 -2.232116
						CHANNELS 3 Xrotation Yrotation Zrotation
						JOINT leftLowerArm
						{
							OFFSET 27.841488 0.000000 0.000001
							CHANNELS 3 Xrotation Yrotation Zrotation
							JOINT leftHand
							{
								OFFSET 28.328808 0.000000 -0.000000
								CHANNELS 3 Xrotation Yrotation Zrotation
								JOINT leftThumbProximal
								{
									OFFSET 2.466103 -1.576202 2.681698
									CHANNELS 6 Xposition Yposition Zposition Xrotation Yrotation Zrotation
									JOINT leftThumbIntermediate
									{
										OFFSET 3.243317 -1.872528 1.872530
										CHANNELS 3 Xrotation Yrotation Zrotation
										JOINT leftThumbDistal
										{
											OFFSET 2.647881 -1.528763 1.528754
											CHANNELS 6 Xposition Yposition Zposition Xrotation Yrotation Zrotation
											JOINT leftHandThumb4
											{
												OFFSET 1.998924 -1.154083 1.154080
												CHANNELS 6 Xposition Yposition Zposition Xrotation Yrotation Zrotation
												End Site
												{
													OFFSET 1.884041 -1.149155 1.337651
												}
											}
										}
									}
								}
								JOINT leftIndexProximal
								{
									OFFSET 9.109299 -0.518005 2.259900
									CHANNELS 6 Xposition Yposition Zposition Xrotation Yrotation Zrotation
									JOINT leftIndexIntermediate
									{
										OFFSET 3.699997 0.000000 0.000000
										CHANNELS 3 Xrotation Yrotation Zrotation
										JOINT leftIndexDistal
										{
											OFFSET 2.850006 0.000000 0.000000
											CHANNELS 3 Xrotation Yrotation Zrotation
											JOINT leftHandIndex4
											{
												OFFSET 2.774895 0.000000 0.000000
												CHANNELS 3 Xrotation Yrotation Zrotation
												End Site
												{
													OFFSET 2.774902 0.000000 -0.000072
												}
											}
										}
									}
								}
								JOINT leftMiddleProximal
								{
									OFFSET 9.533401 0.000000 0.000000
									CHANNELS 6 Xposition Yposition Zposition Xrotation Yrotation Zrotation
									JOINT leftMiddleIntermediate
									{
										OFFSET 3.699997 0.000000 0.000000
										CHANNELS 3 Xrotation Yrotation Zrotation
										JOINT leftMiddleDistal
										{
											OFFSET 2.949997 0.000000 0.000000
											CHANNELS 3 Xrotation Yrotation Zrotation
											JOINT leftHandMiddle4
											{
												OFFSET 2.952896 0.000000 0.000000
												CHANNELS 3 Xrotation Yrotation Zrotation
												End Site
												{
													OFFSET 2.952904 0.000000 0.000165
												}
											}
										}
									}
								}
								JOINT leftRingProximal
								{
									OFFSET 9.104500 -0.042999 -1.865101
									CHANNELS 6 Xposition Yposition Zposition Xrotation Yrotation Zrotation
									JOINT leftRingIntermediate
									{
										OFFSET 3.149994 0.000000 0.000000
										CHANNELS 3 Xrotation Yrotation Zrotation
										JOINT leftRingDistal
										{
											OFFSET 2.950005 0.000000 0.000000
											CHANNELS 3 Xrotation Yrotation Zrotation
											JOINT leftHandRing4
											{
												OFFSET 2.644302 0.000000 0.000000
												CHANNELS 3 Xrotation Yrotation Zrotation
												End Site
												{
													OFFSET 2.644302 0.000000 0.000083
												}
											}
										}
									}
								}
								JOINT leftLittleProximal
								{
									OFFSET 8.077805 -0.486893 -3.806302
									CHANNELS 6 Xposition Yposition Zposition Xrotation Yrotation Zrotation
									JOINT leftLittleIntermediate
									{
										OFFSET 3.600006 0.000000 0.000000
										CHANNELS 3 Xrotation Yrotation Zrotation
										JOINT leftLittleDistal
										{
											OFFSET 2.099998 0.000000 0.000000
											CHANNELS 3 Xrotation Yrotation Zrotation
											JOINT leftHandPinky4
											{
												OFFSET 2.125496 0.000000 0.000000
												CHANNELS 3 Xrotation Yrotation Zrotation
												End Site
												{
													OFFSET 2.125504 0.000000 -0.001254
												}
											}
										}
									}
								}
							}
						}
					}
				}
			}
		}
	}
	JOINT rightUpperLeg
	{
		OFFSET -8.207800 -6.751701 -1.599544
		CHANNELS 6 Xposition Yposition Zposition Xrotation Yrotation Zrotation
		JOINT rightLowerLeg
		{
			OFFSET 0.000004 -44.370152 0.345934
			CHANNELS 3 Xrotation Yrotation Zrotation
			JOINT rightFoot
			{
				OFFSET 0.000004 -44.423664 -3.043535
				CHANNELS 3 Xrotation Yrotation Zrotation
				JOINT rightToes
				{
					OFFSET 0.000001 -8.728691 10.710592
					CHANNELS 3 Xrotation Yrotation Zrotation
					JOINT rightToesEnd
					{
						OFFSET 0.000000 -0.000665 9.278101
						CHANNELS 3 Xrotation Yrotation Zrotation
						End Site
						{
							OFFSET 0.000000 -0.000665 9.278103
						}
					}
				}
			}
		}
	}
	JOINT leftUpperLeg
	{
		OFFSET 8.207800 -6.751701 -1.599544
		CHANNELS 6 Xposition Yposition Zposition Xrotation Yrotation Zrotation
		JOINT leftLowerLeg
		{
			OFFSET 0.000004 -44.370037 0.346940
			CHANNELS 3 Xrotation Yrotation Zrotation
			JOINT leftFoot
			{
				OFFSET 0.000004 -44.423611 -3.044388
				CHANNELS 3 Xrotation Yrotation Zrotation
				JOINT leftToes
				{
					OFFSET 0.000001 -8.728690 10.710592
					CHANNELS 3 Xrotation Yrotation Zrotation
					JOINT leftToesEnd
					{
						OFFSET 0.000000 -0.000680 9.278101
						CHANNELS 3 Xrotation Yrotation Zrotation
						End Site
						{
							OFFSET 0.000000 -0.000680 9.278101
						}
					}
				}
			}
		}
	}
}
MOTION
Frames: 4
Frame Time: 0.033333
0.092675 102.342422 1.613625 1.940062 1.936058 -0.259891 0.000000 10.181539 0.131524 6.176824 -1.268205 0.144784 2.498171 -2.419469 1.232353 2.471489 -2.375262 1.342051 0.000000 16.740396 -2.049021 -0.476779 2.129173 -0.237484 0.000000 9.617860 1.684970 -3.193109 4.531020 -1.876711 -0.000000 22.037369 7.501078 -0.000001 0.000000 0.000000 -4.569995 11.014899 -2.160838 0.552453 4.135216 15.717273 2.585437 28.440245 49.448760 -0.000026 23.198765 0.000047 -1.370071 0.937374 5.904103 -2.464800 -1.573992 2.681907 12.604599 -3.092083 -3.819382 4.958754 -19.016384 -8.084277 -2.646273 -1.527796 1.527812 -16.138082 -1.566956 -12.127650 -1.994597 -1.151592 1.151578 -0.000001 0.000006 0.000003 -9.108302 -0.517862 2.259800 -2.604761 4.001043 20.792727 0.394946 -1.878580 23.742690 0.077857 -0.848917 10.480033 -0.000002 0.000002 -0.000000 -9.532500 0.000013 -0.000004 -1.114248 -0.327543 22.216056 0.858154 -2.695798 35.310084 0.296084 -1.635650 20.519968 -0.000002 0.000000 -0.000000 -9.103599 -0.043102 -1.865103 -0.268999 -2.585354 24.354276 1.505973 -3.430894 47.387449 0.374052 -1.830405 23.097589 0.000000 -0.000002 0.000001 -8.076691 -0.486722 -3.806303 -0.266795 -3.440080 29.323184 0.569768 -2.234005 28.612207 0.178094 -1.276909 15.879970 -0.000001 -0.000001 -0.000002 4.570400 11.014706 -2.160814 0.352387 -9.169211 -14.380724 9.011954 -24.442286 -57.554603 0.000003 -11.061380 -0.000004 3.271870 3.566702 -10.594302 2.466107 -1.576209 2.681696 5.264660 3.579175 10.848954 6.475007 8.367024 6.368030 2.647877 -1.528751 1.528753 2.011412 -7.323832 21.364147 1.998917 -1.154091 1.154075 -0.000001 -0.000001 -0.000000 9.109301 -0.518001 2.259899 -2.233931 -4.155326 -17.702595 0.202659 1.529165 -15.099433 0.202650 1.529158 -15.099453 0.000002 0.000003 0.000002 9.533404 -0.000013 -0.000001 0.434874 4.486753 -26.650240 0.126169 1.210619 -11.900567 0.171656 1.409343 -13.891066 0.000003 0.000003 0.000002 9.104513 -0.042996 -1.865101 1.633450 6.797705 -27.448939 0.330766 1.942506 -19.326896 0.401483 2.133346 -21.315499 -0.000001 0.000001 -0.000000 8.077828 -0.486895 -3.806303 2.784575 8.693935 -34.053148 0.277924 1.784783 -17.702068 0.277921 1.784785 -17.702033 -0.000002 0.000003 0.000001 -8.207798 -6.751718 -1.599541 -13.166977 -7.415347 1.770009 19.969339 2.766989 -3.701505 -9.492895 -0.007434 0.256157 -4.971796 0.000000 0.000000 -0.000001 -0.000000 -0.000000 8.207799 -6.751721 -1.599549 -28.604243 9.095625 4.894488 57.005756 -4.636913 -0.541161 0.239498 0.063663 -1.517675 -8.204102 0.000002 0.000001 0.000000 -0.000001 0.000001 
0.225246 103.100662 6.784589 2.536881 1.363423 -0.043929 -0.000000 10.181545 0.131523 5.777756 -0.297006 -0.136408 2.234222 -1.840796 0.676536 2.217202 -1.797398 0.769948 0.000000 16.740370 -2.049021 -0.432899 1.886102 -0.364865 0.000000 9.617839 1.684976 -2.834826 3.316963 -1.875546 0.000000 22.037384 7.501075 0.000001 -0.000000 0.000000 -4.570002 11.014875 -2.160836 0.538057 4.449561 15.461718 2.369729 30.529720 47.477103 0.000002 25.998973 0.000021 -1.104243 -1.868301 8.080245 -2.464794 -1.573996 2.681910 12.604595 -3.092088 -3.819382 4.823363 -18.766537 -8.140523 -2.646267 -1.527813 1.527808 -16.139267 -1.560868 -12.127898 -1.994606 -1.151582 1.151575 0.000000 -0.000006 0.000003 -9.108297 -0.517881 2.259804 -2.665562 4.004925 21.171163 0.395121 -1.878966 23.748025 0.077917 -0.849333 10.485369 -0.000000 0.000001 0.000002 -9.532497 -0.000005 -0.000003 -1.181393 -0.248056 22.670841 0.860124 -2.698587 35.352011 0.297269 -1.638803 20.561455 -0.000003 0.000001 0.000002 -9.103584 -0.043104 -1.865102 -0.323028 -2.485517 24.603573 1.508364 -3.433081 47.427399 0.375316 -1.833357 23.136979 -0.000001 0.000000 -0.000001 -8.076674 -0.486728 -3.806301 -0.380766 -3.314769 29.553511 0.571882 -2.237906 28.666690 0.179237 -1.280895 15.930827 0.000001 -0.000001 0.000001 4.570401 11.014687 -2.160813 0.400748 -8.194765 -14.189488 11.473796 -20.864426 -59.378120 -0.000005 -11.041836 0.000004 2.941633 2.341819 -13.706601 2.466082 -1.576200 2.681694 5.264658 3.579177 10.848955 5.762004 7.923281 6.757408 2.647886 -1.528745 1.528756 2.014424 -6.999243 21.321614 1.998925 -1.154079 1.154077 -0.000003 0.000003 -0.000000 9.109282 -0.518004 2.259895 -2.284171 -4.876487 -16.721319 0.202983 1.530401 -15.112111 0.202997 1.530414 -15.112115 0.000001 -0.000002 -0.000003 9.533381 -0.000005 -0.000005 0.339244 4.273718 -25.878398 0.126236 1.211002 -11.904357 0.171773 1.409723 -13.894823 -0.000001 -0.000001 -0.000002 9.104502 -0.042986 -1.865106 1.568832 6.750556 -26.402482 0.330770 1.942522 -19.327065 0.401479 2.133356 -21.315559 -0.000000 0.000001 0.000001 8.077814 -0.486898 -3.806307 2.839621 8.872574 -33.509823 0.278653 1.787084 -17.725748 0.278661 1.787106 -17.725739 -0.000003 0.000001 0.000000 -8.207801 -6.751720 -1.599542 -7.277539 -8.113168 2.181602 13.835562 4.312497 -4.348407 -10.411171 -0.074924 0.759148 -4.671632 -0.000001 0.000001 -0.000000 -0.000000 0.000000 8.207799 -6.751715 -1.599542 -30.599514 9.090394 3.871761 43.048678 -2.323179 -2.031837 0.070952 0.166962 -3.187745 -6.394397 -0.000001 -0.000000 -0.000000 0.000001 0.000000 
0.424974 103.094276 11.905153 3.182698 0.731386 -0.108718 -0.000000 10.181529 0.131522 5.334699 0.697027 0.240784 2.013602 -1.243921 -0.033867 1.997116 -1.211860 0.044632 0.000000 16.740362 -2.049021 -0.524808 1.552778 -0.248575 -0.000000 9.617842 1.684975 -2.830587 2.299517 -1.873583 0.000000 22.037354 7.501074 -0.000000 -0.000000 0.000000 -4.570000 11.014845 -2.160837 0.529698 4.787507 14.711507 2.275990 32.199216 45.124338 -0.000009 30.315142 0.000024 -0.064004 -4.741405 10.367566 -2.464791 -1.573997 2.681905 12.604594 -3.092088 -3.819383 5.224054 -17.723824 -7.876980 -2.646266 -1.527815 1.527816 -16.153208 -1.489524 -12.130512 -1.994593 -1.151588 1.151575 0.000002 0.000000 0.000001 -9.108282 -0.517885 2.259803 -2.879413 3.994427 22.533378 0.392472 -1.873034 23.668284 0.076761 -0.842960 10.405702 0.000000 0.000002 0.000004 -9.532505 0.000015 0.000001 -1.266504 -0.214757 23.565360 0.861782 -2.700923 35.387391 0.298282 -1.641477 20.596418 0.000000 -0.000004 0.000001 -9.103590 -0.043120 -1.865102 -0.460868 -2.268746 25.531037 1.511516 -3.435966 47.479903 0.376949 -1.837167 23.188040 -0.000001 0.000003 0.000001 -8.076693 -0.486733 -3.806301 -0.888431 -2.762719 30.350547 0.572537 -2.239114 28.683598 0.179244 -1.280889 15.930926 0.000001 0.000002 0.000002 4.570408 11.014663 -2.160815 0.440415 -7.293194 -14.075038 13.705674 -17.314053 -61.273231 -0.000002 -10.936211 0.000011 2.713594 0.651268 -15.243978 2.466103 -1.576211 2.681699 5.264660 3.579177 10.848957 5.812070 7.755828 6.707076 2.647872 -1.528739 1.528746 2.014075 -7.001300 21.310740 1.998909 -1.154090 1.154078 -0.000000 -0.000001 -0.000000 9.109297 -0.518018 2.259900 -2.239391 -4.807137 -16.567244 0.203353 1.531726 -15.125372 0.203346 1.531723 -15.125375 -0.000002 -0.000005 0.000001 9.533401 -0.000012 -0.000000 0.331647 4.256207 -25.815222 0.126607 1.212737 -11.921673 0.172189 1.411444 -13.912137 0.000002 0.000002 -0.000002 9.104488 -0.043002 -1.865101 1.569555 6.756356 -26.346073 0.330564 1.941909 -19.320734 0.401238 2.132746 -21.309149 0.000000 0.000003 -0.000000 8.077809 -0.486901 -3.806300 2.776027 8.760277 -33.489814 0.278290 1.785965 -17.714278 0.278307 1.785983 -17.714275 -0.000001 0.000002 0.000003 -8.207799 -6.751716 -1.599545 -3.151737 -9.665779 2.162043 10.913766 6.432476 -4.085861 -12.207616 0.036759 -0.056178 -4.486934 -0.000001 -0.000001 -0.000000 -0.000000 -0.000000 8.207800 -6.751709 -1.599541 -29.669703 8.574731 2.606547 23.541739 0.857827 -2.512976 2.782977 0.127040 -4.237526 -5.376325 0.000000 0.000006 -0.000001 0.000000 -0.000001 
0.716509 102.134521 17.150003 3.629399 -0.437952 -1.409447 -0.000000 10.181550 0.131528 4.781418 2.288756 2.352637 1.950791 -0.652175 -1.037333 1.912890 -0.645048 -0.974626 0.000000 16.740358 -2.049019 -0.628592 1.108976 0.338400 -0.000000 9.617864 1.684974 -3.206090 1.506934 -2.195021 -0.000000 22.037399 7.501069 -0.000000 -0.000000 -0.000000 -4.570002 11.014854 -2.160839 0.523026 5.234989 13.873750 1.906150 33.561521 42.363685 -0.000010 33.208943 0.000028 0.720462 -4.683076 11.991790 -2.464804 -1.574008 2.681901 12.604594 -3.092082 -3.819385 5.548334 -15.996940 -7.639393 -2.646266 -1.527789 1.527814 -16.171038 -1.398100 -12.133775 -1.994579 -1.151560 1.151584 -0.000003 -0.000003 0.000001 -9.108285 -0.517891 2.259799 -3.096415 4.007135 23.817215 0.393136 -1.874492 23.687970 0.077042 -0.844538 10.425364 -0.000002 0.000002 -0.000000 -9.532509 0.000009 -0.000006 -1.315429 -0.215341 24.165353 0.862636 -2.702087 35.404952 0.298764 -1.642791 20.613764 0.000002 0.000000 0.000001 -9.103605 -0.043116 -1.865106 -0.605912 -2.048661 26.361385 1.513158 -3.437485 47.507524 0.377784 -1.839121 23.214066 -0.000000 -0.000000 0.000000 -8.076681 -0.486732 -3.806301 -1.478315 -2.141478 31.098480 0.573381 -2.240631 28.704970 0.179242 -1.280903 15.931107 -0.000001 0.000001 0.000001 4.570399 11.014672 -2.160817 0.463806 -6.804712 -13.921316 15.604906 -13.907891 -63.346016 -0.000007 -10.450618 -0.000000 1.835795 -0.898152 -15.552441 2.466094 -1.576191 2.681698 5.264656 3.579177 10.848953 6.090488 7.324399 6.566324 2.647900 -1.528754 1.528751 2.012339 -7.063342 21.284084 1.998925 -1.154086 1.154071 0.000002 -0.000001 -0.000000 9.109304 -0.518004 2.259899 -2.188838 -4.727830 -16.391841 0.203336 1.531692 -15.125145 0.203333 1.531693 -15.125135 0.000001 -0.000002 -0.000005 9.533409 -0.000001 -0.000001 0.339122 4.268396 -25.699388 0.126274 1.211138 -11.905743 0.171799 1.409855 -13.896232 -0.000003 0.000003 -0.000000 9.104504 -0.042999 -1.865100 1.585227 6.789048 -26.328808 0.329961 1.940214 -19.303088 0.400592 2.131057 -21.291388 0.000002 -0.000001 -0.000000 8.077820 -0.486897 -3.806303 2.741107 8.695033 -33.502836 0.277122 1.782277 -17.676483 0.277132 1.782291 -17.676494 0.000001 -0.000000 0.000001 -8.207801 -6.751706 -1.599541 -1.261350 -11.463002 2.436573 13.052236 6.122015 -3.241174 -15.483388 3.000971 0.036378 -4.544563 -0.000001 0.000001 -0.000000 0.000000 0.000000 8.207799 -6.751697 -1.599538 -32.034069 6.927260 3.098947 11.303950 3.134411 -1.120718 3.031246 0.144879 -5.917208 -5.861095 0.000001 -0.000000 0.000002 0.000001 -0.000000 
